<?xml version="1.0" encoding="utf-8"?>
<svg viewBox="0 0 500 500" xmlns="http://www.w3.org/2000/svg">
  <g>
    <path id="Shape" class="st0" d="M 365.872 325.663 L 355.378 325.663 L 318.75 289.034 L 360.576 289.034 L 360.576 296.36 L 336.569 296.36 L 365.872 325.663 Z M 360.576 259.731 L 294.694 259.731 L 294.694 325.663 L 302.019 325.663 L 302.019 267.106 L 360.576 267.106 L 360.576 259.731 Z" style="fill: rgb(0, 30, 255);"/>
  </g>
  <g>
    <path id="Shape_1_" d="M 296.822 227.706 L 296.822 232.458 L 296.228 232.458 L 296.228 227.706 L 294.644 227.706 L 294.644 227.211 L 298.357 227.211 L 298.357 227.706 L 296.822 227.706 Z M 303.653 232.458 L 303.653 227.706 L 302.168 232.458 L 301.722 232.458 L 300.237 227.706 L 300.237 232.458 L 299.743 232.458 L 299.743 227.161 L 300.683 227.161 L 302.019 231.418 L 303.306 227.161 L 304.247 227.161 L 304.247 232.458 L 303.653 232.458 Z M 86.752 259.731 L 93.236 259.731 L 86.059 245.129 L 86.257 245.08 C 90.019 243.991 92.147 241.021 92.098 236.813 C 92.048 230.775 88.237 227.26 81.753 227.26 L 68.883 227.26 L 68.883 259.731 L 74.724 259.731 L 74.724 246.268 L 80.565 246.268 L 86.752 259.731 Z M 74.774 241.664 L 74.774 231.913 L 80.763 231.913 C 84.376 231.913 86.307 233.646 86.307 236.764 C 86.307 240.278 84.376 241.615 79.674 241.615 L 74.774 241.664 Z M 117.193 245.228 L 117.193 240.377 L 105.957 240.377 L 105.957 232.111 L 121.5 232.111 L 121.5 227.26 L 100.117 227.26 L 100.117 259.731 L 121.995 259.731 L 121.995 254.88 L 105.957 254.88 L 105.957 245.179 L 117.193 245.179 L 117.193 245.228 Z M 146.843 240.377 L 135.854 240.377 L 135.854 232.111 L 150.555 232.111 L 150.555 227.26 L 129.964 227.26 L 129.964 259.731 L 135.805 259.731 L 135.805 245.179 L 146.843 245.179 L 146.843 240.377 Z M 157.534 227.211 L 157.534 259.682 L 163.375 259.682 L 163.375 257.751 L 163.375 227.161 L 157.534 227.161 L 157.534 227.211 Z M 208.418 227.211 L 208.418 259.682 L 214.259 259.682 L 214.259 257.256 L 214.259 227.211 L 208.418 227.211 Z M 244.602 227.211 L 221.535 227.211 L 221.535 232.062 L 230.148 232.062 L 230.148 259.731 L 235.989 259.731 L 235.989 232.161 L 244.602 232.161 L 244.602 227.211 Z M 251.729 227.211 L 251.729 259.682 L 257.57 259.682 L 257.57 257.256 L 257.57 227.211 L 251.729 227.211 Z M 193.025 227.211 L 193.025 250.277 L 192.975 250.277 L 179.66 227.211 L 173.324 227.211 L 173.324 259.682 L 178.819 259.682 L 178.819 235.675 L 178.868 235.675 L 192.678 259.682 L 198.37 259.682 L 198.37 227.211 L 193.025 227.211 Z M 285.438 227.211 L 277.815 253.593 L 277.765 253.593 L 270.143 227.211 L 264.351 227.211 L 274.399 259.781 L 281.082 259.781 L 291.13 227.31 L 285.438 227.31 L 285.438 227.211 Z" style="fill: rgb(255, 255, 255);"/>
  </g>
</svg>